<?xml version="1.0" standalone="no"?>
<!DOCTYPE svg PUBLIC "-//W3C//DTD SVG 20010904//EN"
 "http://www.w3.org/TR/2001/REC-SVG-20010904/DTD/svg10.dtd">
<svg version="1.0" xmlns="http://www.w3.org/2000/svg"
 width="400.000000pt" height="400.000000pt" viewBox="0 0 400.000000 400.000000"
 preserveAspectRatio="xMidYMid meet">
<metadata>
Created by potrace 1.14, written by Peter Selinger 2001-2017
</metadata>
<g transform="translate(0.000000,400.000000) scale(0.100000,-0.100000)"
fill="#000000" stroke="none">
<path d="M1820 3830 c-30 -5 -90 -20 -133 -34 -43 -15 -84 -26 -91 -26 -21 0
-144 -92 -237 -177 -162 -147 -236 -244 -358 -471 -161 -296 -186 -372 -240
-722 -6 -40 -9 -45 -39 -51 -72 -15 -102 -75 -102 -205 0 -71 4 -86 35 -144
33 -60 35 -70 35 -155 0 -148 19 -312 49 -440 16 -66 33 -136 36 -155 12 -59
74 -200 119 -269 99 -152 273 -304 363 -318 21 -3 68 -23 104 -44 36 -21 100
-54 141 -72 75 -34 95 -57 81 -93 -3 -7 -43 -46 -90 -85 -89 -75 -99 -96 -51
-113 24 -9 33 -5 80 40 l53 49 8 -60 c13 -96 16 -105 42 -117 45 -20 54 1 49
105 l-5 92 26 -30 c15 -16 37 -42 50 -57 25 -31 56 -36 74 -14 10 11 10 20 0
38 -15 30 -64 94 -103 135 l-30 33 25 0 c14 0 94 -12 179 -26 135 -22 176 -25
352 -22 237 4 234 6 128 -110 -77 -84 -84 -110 -36 -127 24 -8 30 -6 47 15 50
68 61 80 70 74 5 -3 9 -23 9 -45 0 -32 5 -41 24 -51 47 -21 59 -5 51 67 -3 36
-3 65 2 65 5 0 33 -25 63 -55 40 -40 62 -55 82 -55 59 0 23 70 -82 159 -36 30
-66 63 -68 73 -3 14 21 30 112 74 107 51 121 61 193 140 43 47 88 101 99 120
l21 35 33 -51 c41 -63 69 -85 195 -148 154 -78 268 -89 319 -33 15 16 15 22
-3 72 -10 30 -48 120 -85 200 -36 81 -66 160 -66 177 0 17 29 100 64 184 77
186 116 293 116 319 0 11 -11 24 -26 31 -23 11 -39 5 -165 -59 -85 -43 -138
-64 -134 -55 3 9 17 86 31 171 14 86 31 181 39 212 26 99 47 372 35 442 -16
92 -18 96 -58 115 -29 14 -39 26 -50 63 l-15 47 45 63 c25 35 54 82 65 104 27
54 86 262 80 279 -13 34 -260 54 -402 34 l-50 -8 -80 132 c-97 159 -121 192
-246 333 -166 188 -251 264 -360 317 -52 26 -122 56 -155 67 -71 24 -188 33
-264 21z m218 -284 c48 -25 192 -162 192 -183 0 -6 -4 -15 -10 -18 -5 -3 -10
-19 -10 -35 0 -24 7 -33 40 -50 22 -11 64 -21 92 -23 l53 -2 68 -85 c72 -90
134 -204 245 -450 91 -202 98 -224 126 -357 l23 -112 -28 -10 c-31 -11 -218
-36 -224 -30 -2 3 9 31 26 64 35 71 54 197 45 298 -8 83 -56 240 -103 330 -22
41 -57 86 -89 116 -75 69 -133 75 -148 16 -9 -36 -21 -29 -59 35 -18 30 -41
57 -51 58 -11 2 -34 -12 -57 -34 l-39 -38 -13 35 c-8 19 -17 42 -20 52 -4 10
-17 17 -31 17 -19 0 -36 -14 -66 -55 -22 -30 -44 -55 -47 -55 -4 0 -25 21 -48
47 -35 40 -45 45 -68 39 -15 -3 -33 -19 -42 -36 -20 -39 -28 -38 -48 5 -26 54
-66 45 -81 -17 -6 -26 -26 -40 -26 -18 0 15 -46 41 -61 35 -8 -3 -23 -22 -34
-43 -11 -20 -20 -39 -21 -40 -1 -2 -16 6 -33 19 -27 19 -33 21 -60 9 -72 -29
-197 -195 -238 -313 -40 -118 -38 -207 9 -347 20 -58 34 -107 32 -109 -4 -5
-133 29 -158 42 -17 9 -18 18 -12 122 9 169 24 260 58 360 46 136 91 218 161
292 l63 66 60 1 c54 1 66 5 112 41 29 21 52 47 52 56 0 10 -15 27 -34 39 l-35
21 22 37 c30 53 155 175 200 196 106 49 233 54 315 12z m366 -159 c21 -59 -26
-109 -88 -93 -36 9 -33 29 16 82 45 49 58 51 72 11z m-986 -107 c55 -32 65
-53 33 -70 -55 -29 -121 1 -121 54 0 56 13 58 88 16z m658 -275 c21 -36 31
-45 54 -45 22 0 33 8 50 36 24 42 26 41 73 -32 43 -65 69 -69 113 -17 l33 38
44 -43 c111 -109 184 -363 158 -554 -12 -92 -36 -143 -87 -188 -89 -78 -224
-109 -499 -117 -313 -9 -493 21 -613 102 -66 45 -83 72 -127 205 -52 156 -46
250 23 387 23 45 116 164 137 176 8 4 24 -4 43 -23 44 -43 67 -39 95 16 l23
46 18 -26 c21 -33 63 -51 82 -35 7 6 15 25 17 42 l3 32 13 -32 c22 -56 75 -55
85 1 3 18 13 41 21 52 14 18 17 17 66 -34 66 -67 85 -66 118 6 14 28 26 52 27
52 2 0 15 -20 30 -45z m-1084 -278 c45 -35 54 -63 27 -80 -24 -15 -119 47
-119 77 0 47 33 48 92 3z m1968 -1 c16 -21 3 -40 -55 -81 -54 -39 -80 -44 -94
-17 -13 24 -4 36 55 77 54 37 76 42 94 21z m-2042 -98 c20 -12 54 -31 76 -42
44 -22 54 -51 25 -69 -20 -12 -56 1 -124 44 -55 35 -63 79 -16 88 2 1 20 -9
39 -21z m2150 -17 c7 -47 -111 -141 -159 -126 -33 11 -24 52 14 68 18 8 48 31
67 51 40 42 73 45 78 7z m-2178 -339 c42 -6 45 -9 45 -36 0 -26 -5 -31 -35
-39 -45 -11 -52 -24 -34 -60 9 -16 14 -31 12 -33 -2 -2 -22 -7 -44 -12 -41 -9
-43 -14 -32 -77 2 -17 -3 -20 -39 -23 -41 -3 -42 -2 -50 35 -15 71 -10 196 10
226 15 24 24 27 70 26 28 0 72 -4 97 -7z m2346 -16 c9 -23 -33 -329 -50 -371
-12 -29 -20 -36 -38 -33 -19 2 -23 9 -22 33 1 17 5 40 9 53 6 19 2 25 -39 43
-45 20 -55 32 -36 44 25 15 9 46 -35 67 -49 24 -54 38 -27 82 13 22 38 36 107
62 101 37 123 40 131 20z m-659 -255 c86 -95 139 -188 217 -378 57 -139 74
-210 82 -338 7 -128 -31 -365 -71 -445 -27 -54 -197 -230 -203 -212 -2 6 9 34
23 62 46 91 58 180 59 440 1 268 2 266 -97 467 -43 89 -65 121 -127 184 -84
85 -136 116 -267 155 -127 39 -277 39 -422 1 -58 -15 -127 -40 -155 -55 -73
-39 -205 -174 -245 -250 -64 -123 -111 -305 -111 -432 0 -143 50 -362 105
-457 29 -52 17 -55 -46 -13 -52 34 -92 86 -142 186 -120 239 -111 388 44 732
101 225 193 365 263 399 30 14 39 14 107 -3 55 -13 128 -19 291 -22 235 -4
346 7 509 52 46 13 89 21 96 19 6 -3 47 -44 90 -92z m-380 -135 c145 -47 244
-140 325 -307 81 -165 102 -303 87 -569 -10 -167 -21 -218 -65 -297 -32 -58
-38 -63 -108 -92 -114 -47 -180 -61 -316 -68 -158 -7 -288 13 -374 58 -32 17
-84 40 -115 51 -61 23 -123 58 -159 92 -57 51 -106 196 -124 360 -20 194 24
409 109 533 52 76 152 166 226 203 148 73 354 87 514 36z"/>
<path d="M1919 3481 c-33 -27 -16 -56 32 -56 28 0 35 4 37 24 3 15 -3 30 -14
38 -23 17 -27 17 -55 -6z"/>
<path d="M1758 3459 c-26 -15 -23 -47 6 -55 54 -13 84 16 51 50 -19 18 -33 20
-57 5z"/>
<path d="M1584 2636 c-43 -43 -44 -75 -3 -115 30 -31 47 -36 104 -32 36 2 75
42 75 77 0 33 -25 81 -49 94 -41 21 -91 12 -127 -24z"/>
<path d="M2155 2650 c-29 -11 -44 -32 -51 -68 -5 -27 -1 -37 29 -67 29 -29 42
-35 79 -35 49 0 84 24 94 65 8 32 -13 93 -36 105 -22 12 -87 12 -115 0z"/>
<path d="M1900 2519 c-57 -35 -180 -149 -180 -167 0 -18 152 -157 201 -183 39
-22 62 -15 95 30 15 20 44 55 65 78 44 49 80 115 71 130 -4 6 -29 26 -57 45
-27 18 -63 43 -80 55 -46 33 -75 36 -115 12z m102 -78 l38 -28 -23 -20 c-17
-16 -37 -20 -94 -21 -43 -1 -75 4 -79 10 -10 16 71 88 98 88 13 0 40 -13 60
-29z m4 -160 c-53 -54 -61 -58 -82 -49 -31 14 -31 27 0 21 19 -4 36 5 73 41
70 67 77 56 9 -13z m-130 1 c-4 -3 -14 2 -24 12 -16 18 -16 18 6 6 13 -6 21
-14 18 -18z"/>
<path d="M2441 2386 c-9 -11 -6 -20 13 -42 20 -24 28 -27 43 -18 24 15 27 38
8 58 -20 20 -49 21 -64 2z"/>
<path d="M2353 2363 c-4 -9 2 -32 13 -52 14 -27 26 -36 44 -36 22 0 25 4 24
37 -1 21 -7 44 -14 53 -17 20 -59 19 -67 -2z"/>
<path d="M1411 2352 c-14 -26 -14 -59 0 -68 6 -3 24 3 39 14 l28 21 -5 -38
c-6 -42 13 -60 40 -38 19 16 50 98 40 107 -4 5 -36 11 -70 15 -55 6 -62 5 -72
-13z"/>
</g>
</svg>
