<svg width="55" height="56" viewBox="0 0 55 56" fill="none" xmlns="http://www.w3.org/2000/svg">
<path d="M32.9132 22.0148V30.7627C32.9132 30.9841 32.7438 31.1564 32.5261 31.1564H31.1472C31.0141 31.1564 30.8931 31.0826 30.8327 30.9964L26.8894 25.5829V30.775C26.8894 30.9964 26.72 31.1687 26.5023 31.1687H25.1234C24.9056 31.1687 24.7363 30.9964 24.7363 30.775V22.0272C24.7363 21.8057 24.9056 21.6334 25.1234 21.6334H26.4902C26.6112 21.6334 26.7442 21.695 26.8047 21.8057L30.748 27.2192V22.0272C30.748 21.8057 30.9173 21.6334 31.1351 21.6334H32.514C32.7317 21.6211 32.9132 21.8057 32.9132 22.0148ZM22.9945 21.6211H21.6155C21.3978 21.6211 21.2285 21.7934 21.2285 22.0148V30.7627C21.2285 30.9841 21.3978 31.1564 21.6155 31.1564H22.9945C23.2122 31.1564 23.3815 30.9841 23.3815 30.7627V22.0148C23.3815 21.8057 23.2122 21.6211 22.9945 21.6211ZM19.6681 28.954H15.9062V22.0148C15.9062 21.7934 15.7369 21.6211 15.5192 21.6211H14.1402C13.9225 21.6211 13.7531 21.7934 13.7531 22.0148V30.7627C13.7531 30.8734 13.7894 30.9595 13.862 31.0333C13.9346 31.0949 14.0193 31.1441 14.1281 31.1441H19.656C19.8737 31.1441 20.043 30.9718 20.043 30.7504V29.3478C20.043 29.1386 19.8737 28.954 19.6681 28.954ZM40.1707 21.6211H34.6429C34.4373 21.6211 34.2558 21.7934 34.2558 22.0148V30.7627C34.2558 30.9718 34.4252 31.1564 34.6429 31.1564H40.1707C40.3885 31.1564 40.5578 30.9841 40.5578 30.7627V29.3601C40.5578 29.1386 40.3885 28.9663 40.1707 28.9663H36.4089V27.4899H40.1707C40.3885 27.4899 40.5578 27.3177 40.5578 27.0962V25.6813C40.5578 25.4598 40.3885 25.2876 40.1707 25.2876H36.4089V23.8112H40.1707C40.3885 23.8112 40.5578 23.6389 40.5578 23.4175V22.0148C40.5457 21.8057 40.3764 21.6211 40.1707 21.6211ZM54.19 10.8801V45.9821C54.1779 51.4941 49.7387 55.9603 44.3076 55.948H9.79776C4.37877 55.9357 -0.012071 51.408 2.49318e-05 45.896V10.794C0.0121209 5.28203 4.46344 0.815847 9.88243 0.82815H44.3922C49.8112 0.840454 54.2021 5.35585 54.19 10.8801ZM46.7389 25.9643C46.7389 16.9827 37.8846 9.6744 27.0103 9.6744C16.1361 9.6744 7.2818 16.9827 7.2818 25.9643C7.2818 34.0108 14.2975 40.7531 23.7807 42.0327C26.091 42.5372 25.8249 43.3984 25.3048 46.5604C25.2201 47.0649 24.9056 48.5413 27.0103 47.6431C29.115 46.745 38.3684 40.8393 42.5174 35.9917C45.372 32.7927 46.7389 29.5569 46.7389 25.9643Z" fill="#00B900"/>
</svg>
