<svg width="55" height="56" viewBox="0 0 55 56" fill="none" xmlns="http://www.w3.org/2000/svg">
<path d="M48.3839 0.828125H5.80607C2.60064 0.828125 0 3.47339 0 6.73383V50.0423C0 53.3028 2.60064 55.948 5.80607 55.948H48.3839C51.5894 55.948 54.19 53.3028 54.19 50.0423V6.73383C54.19 3.47339 51.5894 0.828125 48.3839 0.828125ZM42.469 20.3662C42.4932 20.7107 42.4932 21.0675 42.4932 21.412C42.4932 32.0791 34.5098 44.3704 19.9221 44.3704C15.4224 44.3704 11.2493 43.0416 7.74143 40.7531C8.38252 40.827 8.99941 40.8516 9.65259 40.8516C13.3661 40.8516 16.7771 39.572 19.4987 37.4066C16.0151 37.3328 13.0879 35.0074 12.0839 31.8085C13.3056 31.993 14.4063 31.993 15.6643 31.6608C12.0355 30.9103 9.31391 27.6622 9.31391 23.7373V23.6389C10.3663 24.2418 11.6 24.6109 12.8943 24.6601C11.8062 23.9239 10.9142 22.9251 10.2979 21.753C9.68157 20.5808 9.36015 19.2716 9.36229 17.9424C9.36229 16.4413 9.74936 15.0633 10.4388 13.8699C14.3458 18.7667 20.2124 21.9656 26.7926 22.3101C25.6677 16.835 29.6956 12.3935 34.534 12.3935C36.8202 12.3935 38.8765 13.3654 40.328 14.9403C42.1182 14.5958 43.8358 13.9191 45.3599 12.9963C44.7672 14.8665 43.5213 16.4413 41.8763 17.4379C43.473 17.2657 45.0212 16.8104 46.4486 16.183C45.372 17.7947 44.0173 19.2219 42.469 20.3662Z" fill="#1DA1F2"/>
</svg>
