<svg width="54" height="56" viewBox="0 0 54 56" fill="none" xmlns="http://www.w3.org/2000/svg">
<path d="M15.4667 0.935303H37.8667C46.4 0.935303 53.3333 7.97957 53.3333 16.6494V39.4078C53.3333 43.5755 51.7038 47.5724 48.8033 50.5194C45.9027 53.4664 41.9687 55.122 37.8667 55.122H15.4667C6.93333 55.122 0 48.0777 0 39.4078V16.6494C0 12.4818 1.62952 8.48484 4.53008 5.53787C7.43064 2.59089 11.3647 0.935303 15.4667 0.935303ZM14.9333 6.35397C12.3873 6.35397 9.94546 7.38158 8.14511 9.21073C6.34476 11.0399 5.33333 13.5208 5.33333 16.1076V39.9497C5.33333 45.3413 9.62667 49.7033 14.9333 49.7033H38.4C40.9461 49.7033 43.3879 48.6757 45.1882 46.8465C46.9886 45.0174 48 42.5365 48 39.9497V16.1076C48 10.716 43.7067 6.35397 38.4 6.35397H14.9333ZM40.6667 10.418C41.5507 10.418 42.3986 10.7748 43.0237 11.4099C43.6488 12.045 44 12.9064 44 13.8046C44 14.7028 43.6488 15.5642 43.0237 16.1994C42.3986 16.8345 41.5507 17.1913 40.6667 17.1913C39.7826 17.1913 38.9348 16.8345 38.3096 16.1994C37.6845 15.5642 37.3333 14.7028 37.3333 13.8046C37.3333 12.9064 37.6845 12.045 38.3096 11.4099C38.9348 10.7748 39.7826 10.418 40.6667 10.418ZM26.6667 14.482C30.2029 14.482 33.5943 15.9092 36.0948 18.4497C38.5952 20.9902 40 24.4358 40 28.0286C40 31.6214 38.5952 35.0671 36.0948 37.6076C33.5943 40.1481 30.2029 41.5753 26.6667 41.5753C23.1304 41.5753 19.7391 40.1481 17.2386 37.6076C14.7381 35.0671 13.3333 31.6214 13.3333 28.0286C13.3333 24.4358 14.7381 20.9902 17.2386 18.4497C19.7391 15.9092 23.1304 14.482 26.6667 14.482ZM26.6667 19.9006C24.5449 19.9006 22.5101 20.757 21.0098 22.2813C19.5095 23.8056 18.6667 25.873 18.6667 28.0286C18.6667 30.1843 19.5095 32.2517 21.0098 33.776C22.5101 35.3003 24.5449 36.1566 26.6667 36.1566C28.7884 36.1566 30.8232 35.3003 32.3235 33.776C33.8238 32.2517 34.6667 30.1843 34.6667 28.0286C34.6667 25.873 33.8238 23.8056 32.3235 22.2813C30.8232 20.757 28.7884 19.9006 26.6667 19.9006Z" fill="white"/>
</svg>
